<svg xmlns="http://www.w3.org/2000/svg" xmlns:xlink="http://www.w3.org/1999/xlink" width="377" zoomAndPan="magnify" viewBox="0 0 282.96 283.499996" height="377" preserveAspectRatio="xMidYMid meet" version="1.0"><defs><clipPath id="843208f967"><path d="M 0.230469 0 L 282.691406 0 L 282.691406 283 L 0.230469 283 Z M 0.230469 0 " clip-rule="nonzero"/></clipPath></defs><g clip-path="url(#843208f967)"><path fill="#7c7c7c" d="M 141.707031 0 C 135.699219 0 130.824219 4.875 130.824219 10.882812 L 130.824219 12.753906 C 130.824219 17.957031 127.160156 22.597656 122.023438 23.421875 C 119.53125 23.828125 117.0625 24.292969 114.625 24.847656 C 109.578125 26 104.46875 23.140625 102.488281 18.363281 L 101.765625 16.664062 C 99.46875 11.113281 93.109375 8.46875 87.546875 10.777344 C 81.996094 13.074219 79.351562 19.433594 81.660156 24.996094 L 82.382812 26.738281 C 84.382812 31.527344 82.78125 37.195312 78.363281 39.9375 C 76.230469 41.265625 74.152344 42.65625 72.117188 44.105469 C 67.894531 47.121094 62.050781 46.433594 58.382812 42.765625 L 57.066406 41.449219 C 52.8125 37.191406 45.921875 37.191406 41.675781 41.449219 C 37.433594 45.703125 37.433594 52.59375 41.675781 56.835938 L 42.996094 58.15625 C 46.664062 61.824219 47.347656 67.652344 44.335938 71.886719 C 42.886719 73.921875 41.496094 76.003906 40.167969 78.136719 C 37.425781 82.554688 31.746094 84.164062 26.949219 82.175781 L 25.226562 81.453125 C 19.675781 79.15625 13.292969 81.789062 10.984375 87.339844 C 8.6875 92.890625 11.320312 99.25 16.871094 101.558594 L 18.574219 102.261719 C 23.351562 104.242188 26.230469 109.347656 25.078125 114.398438 C 24.523438 116.835938 24.035156 119.300781 23.632812 121.792969 C 22.816406 126.921875 18.183594 130.59375 12.984375 130.59375 L 11.113281 130.59375 C 5.105469 130.59375 0.230469 135.46875 0.230469 141.476562 C 0.230469 147.484375 5.105469 152.359375 11.113281 152.359375 L 12.984375 152.359375 C 18.183594 152.359375 22.824219 156.023438 23.652344 161.160156 C 24.054688 163.652344 24.523438 166.117188 25.078125 168.554688 C 26.230469 173.605469 23.371094 178.710938 18.59375 180.695312 L 16.894531 181.417969 C 11.34375 183.710938 8.699219 190.074219 11.003906 195.636719 C 13.300781 201.1875 19.664062 203.832031 25.226562 201.523438 L 26.96875 200.800781 C 31.769531 198.808594 37.4375 200.410156 40.191406 204.820312 C 41.515625 206.953125 42.898438 209.042969 44.355469 211.089844 C 47.371094 215.3125 46.683594 221.152344 43.015625 224.820312 L 41.675781 226.136719 C 37.421875 230.394531 37.421875 237.28125 41.675781 241.527344 C 45.933594 245.769531 52.820312 245.78125 57.066406 241.527344 L 58.40625 240.210938 C 62.074219 236.542969 67.894531 235.835938 72.117188 238.847656 C 74.160156 240.308594 76.253906 241.707031 78.386719 243.035156 C 82.792969 245.777344 84.414062 251.457031 82.425781 256.257812 L 81.703125 257.980469 C 79.40625 263.527344 82.039062 269.914062 87.589844 272.21875 C 93.140625 274.515625 99.503906 271.882812 101.808594 266.332031 L 102.511719 264.632812 C 104.492188 259.855469 109.597656 256.972656 114.648438 258.128906 C 117.085938 258.683594 119.550781 259.171875 122.042969 259.574219 C 127.148438 260.367188 130.824219 265 130.824219 270.199219 L 130.824219 272.070312 C 130.824219 278.078125 135.699219 282.953125 141.707031 282.953125 C 147.714844 282.953125 152.589844 278.078125 152.589844 272.070312 L 152.589844 270.199219 C 152.589844 265 156.253906 260.359375 161.390625 259.53125 C 163.882812 259.128906 166.347656 258.660156 168.785156 258.105469 C 173.835938 256.953125 178.941406 259.8125 180.921875 264.589844 L 181.644531 266.289062 C 183.941406 271.839844 190.304688 274.484375 195.867188 272.175781 C 201.414062 269.882812 204.058594 263.519531 201.753906 257.957031 L 201.03125 256.214844 C 199.039062 251.414062 200.640625 245.746094 205.046875 242.992188 C 207.179688 241.664062 209.273438 240.285156 211.316406 238.828125 C 215.539062 235.8125 221.382812 236.5 225.050781 240.167969 L 226.367188 241.503906 C 230.621094 245.761719 237.511719 245.761719 241.757812 241.503906 C 246 237.25 246.011719 230.359375 241.757812 226.117188 L 240.4375 224.777344 C 236.769531 221.109375 236.0625 215.289062 239.078125 211.066406 C 240.535156 209.023438 241.9375 206.929688 243.265625 204.796875 C 246.007812 200.390625 251.6875 198.765625 256.484375 200.757812 L 258.207031 201.480469 C 263.757812 203.777344 270.140625 201.144531 272.449219 195.59375 C 274.746094 190.042969 272.113281 183.679688 266.5625 181.375 L 264.859375 180.671875 C 260.082031 178.691406 257.203125 173.585938 258.355469 168.535156 C 258.910156 166.097656 259.398438 163.628906 259.800781 161.136719 C 260.597656 156.035156 265.226562 152.359375 270.429688 152.359375 L 272.300781 152.359375 C 278.308594 152.359375 283.183594 147.484375 283.183594 141.476562 C 283.183594 135.46875 278.308594 130.59375 272.300781 130.59375 L 270.429688 130.59375 C 265.226562 130.59375 260.585938 126.929688 259.757812 121.792969 C 259.355469 119.300781 258.890625 116.835938 258.335938 114.398438 C 257.183594 109.347656 260.039062 104.242188 264.820312 102.261719 L 266.519531 101.539062 C 272.070312 99.242188 274.714844 92.878906 272.40625 87.316406 C 270.109375 81.769531 263.746094 79.121094 258.1875 81.429688 L 256.445312 82.152344 C 251.644531 84.144531 245.976562 82.542969 243.222656 78.136719 C 241.894531 76.003906 240.515625 73.910156 239.058594 71.863281 C 236.042969 67.640625 236.726562 61.800781 240.394531 58.132812 L 241.734375 56.816406 C 245.988281 52.5625 245.988281 45.671875 241.734375 41.425781 C 237.480469 37.171875 230.589844 37.171875 226.347656 41.425781 L 225.027344 42.765625 C 221.359375 46.433594 215.519531 47.140625 211.296875 44.125 C 209.25 42.667969 207.160156 41.265625 205.027344 39.9375 C 200.617188 37.195312 199.019531 31.519531 201.007812 26.71875 L 201.730469 24.996094 C 204.027344 19.445312 201.394531 13.0625 195.84375 10.753906 C 190.292969 8.460938 183.929688 11.09375 181.625 16.644531 L 180.902344 18.34375 C 178.921875 23.121094 173.8125 26 168.765625 24.847656 C 166.328125 24.292969 163.859375 23.804688 161.367188 23.402344 C 156.253906 22.585938 152.589844 17.957031 152.589844 12.753906 L 152.589844 10.882812 C 152.589844 4.875 147.714844 0 141.707031 0 Z M 77.941406 108.828125 L 98.261719 108.828125 L 120.195312 174.125 L 102.105469 174.125 L 98.027344 159.777344 L 76.707031 159.777344 L 72.496094 174.125 L 56.023438 174.125 Z M 132.992188 108.828125 L 161.601562 108.828125 C 175.628906 108.828125 185.132812 117.96875 185.132812 131.996094 C 185.132812 145.882812 175.121094 154.972656 160.601562 154.972656 L 149.613281 154.972656 L 149.613281 174.125 L 132.992188 174.125 Z M 206.449219 108.828125 L 223.074219 108.828125 L 223.074219 174.125 L 206.449219 174.125 Z M 149.59375 121.601562 L 149.59375 142.453125 L 157.117188 142.453125 C 164.179688 142.453125 168.339844 138.839844 168.339844 132.0625 C 168.351562 125.171875 164.222656 121.601562 157.203125 121.601562 Z M 87.035156 123.539062 L 79.875 147.832031 L 94.902344 147.832031 L 87.886719 123.539062 Z M 87.035156 123.539062 " fill-opacity="1" fill-rule="nonzero"/></g></svg>