<svg xmlns="http://www.w3.org/2000/svg" xmlns:xlink="http://www.w3.org/1999/xlink" width="377" zoomAndPan="magnify" viewBox="0 0 282.96 283.499996" height="377" preserveAspectRatio="xMidYMid meet" version="1.0"><defs><clipPath id="a49c2349dc"><path d="M 17 1 L 266.75 1 L 266.75 282 L 17 282 Z M 17 1 " clip-rule="nonzero"/></clipPath><clipPath id="87e97870ff"><path d="M 142 71 L 266.75 71 L 266.75 212 L 142 212 Z M 142 71 " clip-rule="nonzero"/></clipPath></defs><g clip-path="url(#a49c2349dc)"><path fill="#5c8dbc" d="M 266.355469 83.816406 C 266.355469 79.105469 265.34375 74.941406 263.304688 71.367188 C 261.304688 67.855469 258.308594 64.910156 254.289062 62.582031 C 221.09375 43.441406 187.878906 24.363281 154.695312 5.203125 C 145.75 0.0390625 137.078125 0.226562 128.203125 5.464844 C 114.996094 13.257812 48.847656 51.152344 29.132812 62.570312 C 21.023438 67.269531 17.074219 74.460938 17.070312 83.808594 C 17.058594 122.300781 17.070312 160.785156 17.058594 199.28125 C 17.058594 203.886719 18.023438 207.964844 19.972656 211.484375 C 21.976562 215.105469 25.015625 218.140625 29.128906 220.519531 C 48.839844 231.933594 114.984375 269.824219 128.195312 277.617188 C 137.082031 282.867188 145.753906 283.050781 154.699219 277.878906 C 187.882812 258.722656 221.109375 239.640625 254.304688 220.507812 C 258.421875 218.128906 261.453125 215.09375 263.464844 211.476562 C 265.40625 207.964844 266.371094 203.875 266.371094 199.261719 C 266.371094 199.261719 266.371094 122.3125 266.359375 83.820312 " fill-opacity="1" fill-rule="nonzero"/></g><path fill="#1a4674" d="M 142.09375 141.167969 L 19.976562 211.484375 C 21.976562 215.105469 25.015625 218.136719 29.128906 220.519531 C 48.839844 231.933594 114.984375 269.820312 128.195312 277.617188 C 137.082031 282.863281 145.753906 283.050781 154.699219 277.878906 C 187.882812 258.71875 221.109375 239.636719 254.304688 220.507812 C 258.421875 218.128906 261.453125 215.09375 263.464844 211.476562 L 142.097656 141.167969 " fill-opacity="1" fill-rule="nonzero"/><path fill="#1a4674" d="M 105.921875 161.996094 C 113.03125 174.40625 126.386719 182.773438 141.710938 182.773438 C 157.132812 182.773438 170.566406 174.296875 177.636719 161.761719 L 142.09375 141.167969 L 105.921875 161.996094 " fill-opacity="1" fill-rule="nonzero"/><g clip-path="url(#87e97870ff)"><path fill="#1b598e" d="M 266.355469 83.816406 C 266.355469 79.105469 265.34375 74.941406 263.304688 71.367188 L 142.09375 141.167969 L 263.460938 211.476562 C 265.402344 207.964844 266.367188 203.875 266.367188 199.261719 C 266.367188 199.261719 266.367188 122.3125 266.355469 83.816406 " fill-opacity="1" fill-rule="nonzero"/></g><path fill="#ffffff" d="M 259.683594 146.191406 L 250.203125 146.191406 L 250.203125 155.675781 L 240.710938 155.675781 L 240.710938 146.191406 L 231.230469 146.191406 L 231.230469 136.710938 L 240.710938 136.710938 L 240.710938 127.226562 L 250.203125 127.226562 L 250.203125 136.710938 L 259.683594 136.710938 L 259.683594 146.191406 " fill-opacity="1" fill-rule="nonzero"/><path fill="#ffffff" d="M 225.074219 146.191406 L 215.59375 146.191406 L 215.59375 155.675781 L 206.113281 155.675781 L 206.113281 146.191406 L 196.628906 146.191406 L 196.628906 136.710938 L 206.113281 136.710938 L 206.113281 127.226562 L 215.59375 127.226562 L 215.59375 136.710938 L 225.074219 136.710938 L 225.074219 146.191406 " fill-opacity="1" fill-rule="nonzero"/><path fill="#ffffff" d="M 177.636719 161.761719 C 170.566406 174.296875 157.132812 182.773438 141.710938 182.773438 C 126.386719 182.773438 113.03125 174.40625 105.921875 161.996094 C 102.472656 155.96875 100.488281 148.992188 100.488281 141.539062 C 100.488281 118.769531 118.945312 100.3125 141.710938 100.3125 C 156.9375 100.3125 170.226562 108.578125 177.367188 120.859375 L 213.398438 100.109375 C 199.078125 75.378906 172.339844 58.746094 141.710938 58.746094 C 95.988281 58.746094 58.921875 95.816406 58.921875 141.539062 C 58.921875 156.542969 62.910156 170.609375 69.886719 182.746094 C 84.171875 207.601562 110.988281 224.34375 141.710938 224.34375 C 172.496094 224.34375 199.351562 207.535156 213.613281 182.609375 L 177.636719 161.761719 " fill-opacity="1" fill-rule="nonzero"/></svg>