<svg xmlns="http://www.w3.org/2000/svg" xmlns:xlink="http://www.w3.org/1999/xlink" width="377" zoomAndPan="magnify" viewBox="0 0 282.96 283.499996" height="377" preserveAspectRatio="xMidYMid meet" version="1.0"><defs><clipPath id="6838551250"><path d="M 62 209 L 244 209 L 244 283 L 62 283 Z M 62 209 " clip-rule="nonzero"/></clipPath><clipPath id="239418a0c4"><path d="M 208 63 L 282.691406 63 L 282.691406 246 L 208 246 Z M 208 63 " clip-rule="nonzero"/></clipPath></defs><path fill="#00c4b3" d="M 78.859375 80.332031 L 60.5625 62.003906 L 60.632812 194.375 L 60.851562 200.550781 C 60.941406 203.472656 61.496094 206.75 62.378906 210.15625 L 207.304688 261.328125 L 243.566406 245.261719 L 243.597656 245.207031 L 78.851562 80.332031 Z M 78.859375 80.332031 " fill-opacity="1" fill-rule="nonzero"/><g clip-path="url(#6838551250)"><path fill="#22d3c5" d="M 62.382812 210.15625 L 62.394531 210.15625 C 62.382812 210.105469 62.359375 210.042969 62.335938 209.980469 C 62.367188 210.046875 62.367188 210.113281 62.378906 210.15625 Z M 243.53125 245.261719 L 207.269531 261.328125 L 62.367188 210.15625 C 65.128906 220.800781 71.261719 232.761719 77.851562 239.285156 L 125.121094 286.371094 L 230.308594 286.503906 L 243.484375 245.261719 Z M 243.53125 245.261719 " fill-opacity="1" fill-rule="nonzero"/></g><path fill="#0075c9" d="M 61.054688 62.011719 L 4.707031 147.199219 C 0.03125 152.203125 2.363281 162.523438 9.894531 170.128906 L 42.421875 202.957031 L 62.871094 210.171875 C 61.984375 206.773438 61.429688 203.53125 61.34375 200.566406 L 61.121094 194.386719 L 61.054688 62.019531 Z M 61.054688 62.011719 " fill-opacity="1" fill-rule="nonzero"/><path fill="#0075c9" d="M 208.5 63.714844 C 205.09375 62.851562 201.832031 62.304688 198.890625 62.222656 L 192.355469 61.984375 L 60.5625 62.015625 L 243.59375 245.210938 L 259.671875 208.914062 L 208.507812 63.722656 Z M 208.5 63.714844 " fill-opacity="1" fill-rule="nonzero"/><g clip-path="url(#239418a0c4)"><path fill="#00a8e1" d="M 208.332031 63.683594 C 208.390625 63.707031 208.453125 63.71875 208.5 63.726562 L 208.5 63.710938 C 208.441406 63.695312 208.390625 63.695312 208.332031 63.675781 Z M 237.582031 79.257812 C 230.929688 72.550781 219.144531 66.417969 208.5 63.726562 L 259.660156 208.90625 L 243.566406 245.203125 L 282.839844 232.640625 L 282.929688 124.84375 L 237.578125 79.25 Z M 237.582031 79.257812 " fill-opacity="1" fill-rule="nonzero"/></g><path fill="#00c4b3" d="M 201.328125 43.375 L 168.605469 10.792969 C 160.972656 3.28125 150.660156 0.9375 145.710938 5.609375 L 60.613281 62.003906 L 192.410156 61.976562 L 198.945312 62.214844 C 201.886719 62.300781 205.152344 62.84375 208.554688 63.707031 L 201.335938 43.367188 Z M 201.328125 43.375 " fill-opacity="1" fill-rule="nonzero"/></svg>