<svg xmlns="http://www.w3.org/2000/svg" xmlns:xlink="http://www.w3.org/1999/xlink" width="377" zoomAndPan="magnify" viewBox="0 0 282.96 283.499996" height="377" preserveAspectRatio="xMidYMid meet" version="1.0"><defs><clipPath id="59cb0552e8"><path d="M 0.230469 0 L 282.691406 0 L 282.691406 283 L 0.230469 283 Z M 0.230469 0 " clip-rule="nonzero"/></clipPath></defs><g clip-path="url(#59cb0552e8)"><path fill="#f03c2e" d="M 277.886719 128.898438 L 154.332031 5.339844 C 153.910156 4.917969 153.46875 4.519531 153.007812 4.140625 C 152.546875 3.761719 152.066406 3.40625 151.570312 3.074219 C 151.074219 2.742188 150.5625 2.4375 150.035156 2.15625 C 149.511719 1.875 148.972656 1.617188 148.421875 1.390625 C 147.867188 1.160156 147.308594 0.960938 146.738281 0.789062 C 146.164062 0.613281 145.585938 0.46875 145 0.351562 C 144.417969 0.234375 143.828125 0.148438 143.234375 0.0898438 C 142.640625 0.03125 142.042969 0.00390625 141.445312 0.00390625 C 140.851562 0.00390625 140.253906 0.03125 139.660156 0.0898438 C 139.066406 0.148438 138.476562 0.234375 137.890625 0.351562 C 137.304688 0.46875 136.726562 0.613281 136.15625 0.789062 C 135.585938 0.960938 135.023438 1.160156 134.472656 1.390625 C 133.921875 1.617188 133.382812 1.875 132.855469 2.15625 C 132.328125 2.4375 131.820312 2.742188 131.324219 3.074219 C 130.824219 3.40625 130.347656 3.761719 129.886719 4.140625 C 129.425781 4.519531 128.984375 4.917969 128.5625 5.339844 L 102.914062 30.988281 L 135.460938 63.535156 C 143.03125 60.878906 151.695312 62.695312 157.726562 68.726562 C 158.441406 69.441406 159.101562 70.203125 159.710938 71.011719 C 160.320312 71.820312 160.867188 72.664062 161.355469 73.550781 C 161.84375 74.433594 162.269531 75.347656 162.632812 76.292969 C 162.992188 77.238281 163.285156 78.203125 163.511719 79.1875 C 163.738281 80.171875 163.894531 81.171875 163.980469 82.175781 C 164.066406 83.183594 164.082031 84.191406 164.027344 85.203125 C 163.972656 86.210938 163.847656 87.214844 163.65625 88.207031 C 163.460938 89.199219 163.195312 90.171875 162.867188 91.125 L 194.234375 122.496094 C 201.824219 119.878906 210.578125 121.566406 216.636719 127.640625 C 217.140625 128.144531 217.617188 128.671875 218.066406 129.21875 C 218.519531 129.769531 218.941406 130.339844 219.335938 130.929688 C 219.730469 131.519531 220.097656 132.128906 220.429688 132.753906 C 220.765625 133.382812 221.070312 134.023438 221.339844 134.679688 C 221.613281 135.335938 221.851562 136.003906 222.058594 136.683594 C 222.265625 137.363281 222.4375 138.054688 222.578125 138.75 C 222.714844 139.445312 222.820312 140.148438 222.890625 140.855469 C 222.960938 141.5625 222.996094 142.273438 222.996094 142.984375 C 222.996094 143.691406 222.960938 144.402344 222.890625 145.109375 C 222.820312 145.816406 222.714844 146.519531 222.578125 147.214844 C 222.4375 147.914062 222.265625 148.601562 222.0625 149.28125 C 221.855469 149.960938 221.617188 150.628906 221.34375 151.285156 C 221.070312 151.941406 220.769531 152.582031 220.433594 153.210938 C 220.097656 153.835938 219.734375 154.445312 219.339844 155.035156 C 218.941406 155.628906 218.519531 156.199219 218.070312 156.746094 C 217.617188 157.296875 217.140625 157.820312 216.640625 158.324219 C 216.136719 158.828125 215.609375 159.304688 215.0625 159.753906 C 214.511719 160.203125 213.941406 160.628906 213.351562 161.023438 C 212.761719 161.417969 212.152344 161.78125 211.523438 162.117188 C 210.898438 162.449219 210.257812 162.753906 209.597656 163.027344 C 208.941406 163.296875 208.273438 163.535156 207.59375 163.742188 C 206.914062 163.949219 206.226562 164.121094 205.527344 164.257812 C 204.832031 164.398438 204.128906 164.503906 203.421875 164.570312 C 202.714844 164.640625 202.007812 164.675781 201.296875 164.675781 C 200.585938 164.675781 199.875 164.640625 199.167969 164.570312 C 198.460938 164.5 197.761719 164.394531 197.0625 164.257812 C 196.367188 164.117188 195.679688 163.945312 194.996094 163.738281 C 194.316406 163.53125 193.648438 163.292969 192.992188 163.019531 C 192.335938 162.746094 191.695312 162.445312 191.070312 162.109375 C 190.441406 161.773438 189.835938 161.40625 189.242188 161.011719 C 188.652344 160.617188 188.082031 160.195312 187.535156 159.742188 C 186.984375 159.292969 186.460938 158.816406 185.957031 158.3125 C 179.589844 151.945312 178.015625 142.570312 181.234375 134.726562 L 151.980469 105.472656 L 151.980469 182.457031 C 154.117188 183.515625 156.03125 184.882812 157.726562 186.558594 C 158.230469 187.0625 158.707031 187.585938 159.15625 188.136719 C 159.609375 188.683594 160.03125 189.253906 160.425781 189.847656 C 160.820312 190.4375 161.183594 191.046875 161.519531 191.671875 C 161.855469 192.296875 162.15625 192.9375 162.429688 193.59375 C 162.699219 194.25 162.941406 194.917969 163.144531 195.597656 C 163.351562 196.277344 163.523438 196.96875 163.664062 197.664062 C 163.800781 198.359375 163.90625 199.0625 163.976562 199.769531 C 164.046875 200.476562 164.078125 201.183594 164.078125 201.894531 C 164.078125 202.605469 164.046875 203.3125 163.976562 204.019531 C 163.90625 204.726562 163.800781 205.429688 163.664062 206.125 C 163.523438 206.820312 163.351562 207.511719 163.144531 208.191406 C 162.941406 208.871094 162.699219 209.539062 162.429688 210.195312 C 162.15625 210.851562 161.855469 211.492188 161.519531 212.117188 C 161.183594 212.746094 160.820312 213.351562 160.425781 213.941406 C 160.03125 214.535156 159.609375 215.105469 159.15625 215.652344 C 158.707031 216.203125 158.230469 216.726562 157.726562 217.230469 C 157.226562 217.730469 156.699219 218.207031 156.152344 218.660156 C 155.601562 219.109375 155.03125 219.53125 154.441406 219.925781 C 153.851562 220.320312 153.242188 220.6875 152.617188 221.019531 C 151.988281 221.355469 151.347656 221.660156 150.691406 221.929688 C 150.035156 222.203125 149.367188 222.441406 148.6875 222.648438 C 148.007812 222.855469 147.320312 223.027344 146.625 223.164062 C 145.925781 223.304688 145.226562 223.40625 144.519531 223.476562 C 143.8125 223.546875 143.101562 223.582031 142.394531 223.582031 C 141.683594 223.582031 140.972656 223.546875 140.265625 223.476562 C 139.558594 223.40625 138.859375 223.304688 138.160156 223.164062 C 137.464844 223.027344 136.777344 222.855469 136.097656 222.648438 C 135.417969 222.441406 134.75 222.203125 134.09375 221.929688 C 133.4375 221.660156 132.796875 221.355469 132.167969 221.019531 C 131.542969 220.6875 130.933594 220.320312 130.34375 219.925781 C 129.753906 219.53125 129.183594 219.109375 128.632812 218.660156 C 128.085938 218.207031 127.558594 217.730469 127.058594 217.230469 C 126.554688 216.726562 126.078125 216.203125 125.625 215.652344 C 125.175781 215.105469 124.753906 214.535156 124.355469 213.945312 C 123.960938 213.355469 123.597656 212.746094 123.261719 212.121094 C 122.925781 211.492188 122.621094 210.851562 122.351562 210.195312 C 122.078125 209.539062 121.839844 208.871094 121.632812 208.191406 C 121.425781 207.511719 121.253906 206.824219 121.113281 206.125 C 120.976562 205.429688 120.871094 204.726562 120.800781 204.019531 C 120.730469 203.3125 120.699219 202.605469 120.699219 201.894531 C 120.699219 201.183594 120.730469 200.476562 120.800781 199.769531 C 120.871094 199.0625 120.976562 198.359375 121.113281 197.664062 C 121.253906 196.964844 121.425781 196.277344 121.632812 195.597656 C 121.839844 194.917969 122.078125 194.25 122.351562 193.59375 C 122.621094 192.9375 122.925781 192.296875 123.261719 191.667969 C 123.597656 191.042969 123.960938 190.433594 124.355469 189.84375 C 124.753906 189.253906 125.175781 188.683594 125.625 188.136719 C 126.078125 187.585938 126.554688 187.0625 127.058594 186.558594 C 129.152344 184.472656 131.480469 182.890625 134.160156 181.828125 L 134.160156 104.125 C 131.578125 103.066406 129.152344 101.5 127.058594 99.394531 C 126.300781 98.640625 125.601562 97.832031 124.964844 96.972656 C 124.328125 96.113281 123.757812 95.210938 123.253906 94.265625 C 122.75 93.324219 122.320312 92.347656 121.960938 91.339844 C 121.601562 90.332031 121.316406 89.300781 121.109375 88.25 C 120.902344 87.203125 120.777344 86.140625 120.726562 85.074219 C 120.675781 84.003906 120.707031 82.9375 120.8125 81.875 C 120.921875 80.808594 121.109375 79.757812 121.371094 78.722656 C 121.636719 77.683594 121.972656 76.671875 122.386719 75.683594 L 90.285156 43.601562 L 5.5625 128.234375 C 5.140625 128.65625 4.738281 129.097656 4.359375 129.558594 C 3.980469 130.019531 3.625 130.5 3.292969 130.996094 C 2.960938 131.492188 2.65625 132.003906 2.371094 132.53125 C 2.089844 133.058594 1.835938 133.597656 1.605469 134.148438 C 1.378906 134.699219 1.175781 135.261719 1.003906 135.832031 C 0.832031 136.402344 0.683594 136.980469 0.570312 137.566406 C 0.453125 138.152344 0.363281 138.742188 0.304688 139.335938 C 0.246094 139.933594 0.21875 140.527344 0.21875 141.125 C 0.21875 141.722656 0.246094 142.316406 0.304688 142.910156 C 0.363281 143.503906 0.453125 144.097656 0.570312 144.679688 C 0.683594 145.265625 0.832031 145.84375 1.003906 146.417969 C 1.175781 146.988281 1.378906 147.550781 1.605469 148.101562 C 1.835938 148.652344 2.089844 149.191406 2.371094 149.71875 C 2.65625 150.246094 2.960938 150.757812 3.292969 151.253906 C 3.625 151.75 3.980469 152.226562 4.359375 152.6875 C 4.738281 153.152344 5.140625 153.59375 5.5625 154.015625 L 129.128906 277.5625 C 129.550781 277.984375 129.992188 278.382812 130.453125 278.761719 C 130.914062 279.140625 131.390625 279.496094 131.886719 279.828125 C 132.382812 280.160156 132.894531 280.46875 133.421875 280.75 C 133.949219 281.03125 134.488281 281.285156 135.039062 281.511719 C 135.589844 281.742188 136.152344 281.941406 136.722656 282.117188 C 137.292969 282.289062 137.871094 282.433594 138.457031 282.550781 C 139.042969 282.667969 139.632812 282.753906 140.226562 282.8125 C 140.820312 282.871094 141.414062 282.902344 142.011719 282.902344 C 142.609375 282.902344 143.203125 282.871094 143.796875 282.8125 C 144.394531 282.753906 144.984375 282.667969 145.566406 282.550781 C 146.152344 282.433594 146.730469 282.289062 147.300781 282.117188 C 147.875 281.941406 148.433594 281.742188 148.988281 281.511719 C 149.539062 281.285156 150.078125 281.03125 150.601562 280.75 C 151.128906 280.46875 151.640625 280.160156 152.136719 279.828125 C 152.632812 279.496094 153.113281 279.140625 153.574219 278.761719 C 154.035156 278.382812 154.476562 277.984375 154.898438 277.5625 L 277.886719 154.765625 C 278.3125 154.34375 278.710938 153.902344 279.089844 153.441406 C 279.46875 152.980469 279.824219 152.5 280.15625 152.003906 C 280.488281 151.507812 280.796875 150.996094 281.078125 150.46875 C 281.359375 149.945312 281.613281 149.40625 281.84375 148.851562 C 282.070312 148.300781 282.273438 147.738281 282.445312 147.167969 C 282.621094 146.597656 282.765625 146.019531 282.882812 145.433594 C 282.996094 144.847656 283.085938 144.257812 283.144531 143.664062 C 283.203125 143.070312 283.230469 142.472656 283.230469 141.875 C 283.230469 141.277344 283.203125 140.683594 283.144531 140.089844 C 283.085938 139.496094 282.996094 138.90625 282.882812 138.320312 C 282.765625 137.734375 282.621094 137.15625 282.445312 136.582031 C 282.273438 136.011719 282.070312 135.449219 281.84375 134.898438 C 281.613281 134.347656 281.359375 133.808594 281.078125 133.28125 C 280.796875 132.753906 280.488281 132.246094 280.15625 131.75 C 279.824219 131.25 279.46875 130.773438 279.089844 130.3125 C 278.710938 129.851562 278.3125 129.410156 277.886719 128.988281 " fill-opacity="1" fill-rule="nonzero"/></g></svg>