<svg xmlns="http://www.w3.org/2000/svg" xmlns:xlink="http://www.w3.org/1999/xlink" width="377" zoomAndPan="magnify" viewBox="0 0 282.96 283.499996" height="377" preserveAspectRatio="xMidYMid meet" version="1.0"><defs><clipPath id="70fe398f41"><path d="M 17.722656 0 L 265.535156 0 L 265.535156 283 L 17.722656 283 Z M 17.722656 0 " clip-rule="nonzero"/></clipPath></defs><g clip-path="url(#70fe398f41)"><path fill="#e44d26" d="M 40.21875 254.09375 L 17.652344 0.789062 L 265.605469 0.789062 L 243.019531 254.058594 L 141.46875 282.21875 Z M 40.21875 254.09375 " fill-opacity="1" fill-rule="nonzero"/></g><path fill="#f16529" d="M 223.679688 237.929688 L 242.984375 21.503906 L 141.628906 21.503906 L 141.628906 260.699219 Z M 223.679688 237.929688 " fill-opacity="1" fill-rule="nonzero"/><path fill="#ebebeb" d="M 141.523438 52.566406 L 63.785156 52.566406 L 72.160156 146.511719 L 141.628906 146.511719 L 141.628906 115.449219 L 100.554688 115.449219 L 97.714844 83.636719 L 141.628906 83.636719 L 141.628906 52.566406 Z M 141.628906 196.027344 L 141.496094 196.0625 L 106.925781 186.722656 L 104.726562 161.949219 L 73.550781 161.949219 L 77.898438 210.726562 L 141.488281 228.316406 L 141.628906 228.269531 Z M 141.628906 196.027344 " fill-opacity="1" fill-rule="nonzero"/><path fill="#ffffff" d="M 141.523438 146.511719 L 179.75 146.511719 L 176.234375 186.792969 L 141.609375 196.144531 L 141.609375 228.464844 L 205.25 210.8125 L 213.773438 115.433594 L 141.628906 115.433594 Z M 218.539062 60.902344 L 219.277344 52.566406 L 141.503906 52.566406 L 141.503906 83.628906 L 216.480469 83.628906 L 217.097656 76.644531 Z M 218.539062 60.902344 " fill-opacity="1" fill-rule="nonzero"/></svg>