<svg xmlns="http://www.w3.org/2000/svg" xmlns:xlink="http://www.w3.org/1999/xlink" width="377" zoomAndPan="magnify" viewBox="0 0 282.96 283.499996" height="377" preserveAspectRatio="xMidYMid meet" version="1.0"><defs><clipPath id="3f70341a90"><path d="M 34 0 L 240 0 L 240 283 L 34 283 Z M 34 0 " clip-rule="nonzero"/></clipPath></defs><path fill="#4e7896" d="M 106.035156 214.796875 C 106.035156 214.796875 95.367188 221.292969 113.453125 223.148438 C 135.25 225.929688 146.847656 225.46875 170.960938 220.828125 C 170.960938 220.828125 177.457031 225.003906 186.269531 228.25 C 132.003906 251.449219 63.363281 226.859375 106.035156 214.796875 Z M 99.078125 184.644531 C 99.078125 184.644531 87.480469 193.457031 105.570312 195.3125 C 129.222656 197.632812 147.773438 198.097656 179.773438 191.601562 C 179.773438 191.601562 183.949219 196.242188 190.90625 198.5625 C 125.511719 218.046875 52.230469 200.417969 99.074219 184.644531 Z M 227.085938 237.523438 C 227.085938 237.523438 234.96875 244.019531 218.273438 249.121094 C 187.195312 258.402344 87.949219 261.183594 60.117188 249.121094 C 50.378906 244.949219 68.929688 238.917969 74.960938 237.988281 C 80.988281 236.597656 84.234375 236.597656 84.234375 236.597656 C 73.570312 229.175781 13.277344 251.90625 53.625 258.402344 C 164.46875 276.492188 255.835938 250.515625 227.082031 237.523438 Z M 111.136719 153.09375 C 111.136719 153.09375 60.585938 165.152344 93.050781 169.328125 C 106.964844 171.183594 134.328125 170.722656 159.835938 168.863281 C 180.707031 167.007812 201.578125 163.296875 201.578125 163.296875 C 201.578125 163.296875 194.15625 166.542969 189.054688 169.792969 C 137.574219 183.246094 38.789062 177.214844 67.078125 163.296875 C 91.195312 151.699219 111.136719 153.089844 111.136719 153.089844 Z M 201.574219 203.660156 C 253.519531 176.75 229.402344 150.773438 212.707031 154.019531 C 208.53125 154.949219 206.675781 155.875 206.675781 155.875 C 206.675781 155.875 208.070312 153.089844 211.3125 152.164062 C 244.242188 140.566406 270.214844 186.957031 200.648438 205.050781 C 200.648438 205.050781 201.113281 204.585938 201.574219 203.65625 Z M 116.238281 276.957031 C 166.328125 280.207031 242.84375 275.101562 244.710938 251.441406 C 244.710938 251.441406 241 260.71875 203.433594 267.679688 C 160.765625 275.566406 107.894531 274.636719 76.828125 269.535156 C 76.828125 269.535156 83.320312 275.101562 116.25 276.957031 Z M 116.238281 276.957031 " fill-opacity="1" fill-rule="nonzero"/><g clip-path="url(#3f70341a90)"><path fill="#f58219" d="M 170.035156 0 C 170.035156 0 198.789062 29.226562 142.671875 73.296875 C 97.683594 109.019531 132.46875 129.433594 142.671875 152.628906 C 116.234375 128.96875 97.21875 108.09375 110.207031 88.609375 C 129.222656 59.84375 181.636719 45.9375 170.039062 0 Z M 155.203125 133.148438 C 168.652344 148.457031 151.492188 162.375 151.492188 162.375 C 151.492188 162.375 185.8125 144.746094 170.042969 122.941406 C 155.664062 102.066406 144.535156 91.859375 204.824219 57.074219 C 204.824219 57.074219 109.75 80.734375 155.199219 133.15625 Z M 120.875 382.261719 L 120.875 336.800781 C 120.875 325.199219 114.382812 317.316406 98.148438 317.316406 C 88.875 317.316406 80.992188 319.632812 74.035156 322.410156 L 76.351562 330.761719 C 81.445312 328.90625 87.949219 327.046875 94.902344 327.046875 C 103.714844 327.046875 107.890625 330.761719 107.890625 338.183594 L 107.890625 344.214844 L 103.253906 344.214844 C 80.992188 344.214844 70.789062 352.5625 70.789062 366.015625 C 70.789062 377.152344 77.746094 383.644531 90.265625 383.644531 C 98.152344 383.644531 104.179688 379.933594 109.746094 375.296875 L 110.675781 382.253906 L 120.878906 382.253906 Z M 107.890625 367.417969 C 103.25 371.59375 98.148438 373.914062 93.511719 373.914062 C 87.480469 373.914062 83.773438 370.203125 83.773438 363.707031 C 83.773438 357.210938 87.484375 352.574219 102.324219 352.574219 L 107.890625 352.574219 Z M 164.472656 382.261719 L 148.238281 382.261719 L 128.761719 318.707031 L 142.675781 318.707031 L 154.734375 357.675781 L 157.515625 369.273438 C 163.546875 352.570312 168.183594 335.40625 170.039062 318.707031 L 183.953125 318.707031 C 180.242188 339.582031 173.75 362.316406 164.476562 382.261719 Z M 239.605469 382.261719 L 239.605469 336.800781 C 239.605469 325.199219 233.113281 317.316406 216.878906 317.316406 C 207.601562 317.316406 199.71875 319.632812 192.761719 322.410156 L 194.617188 330.761719 C 200.183594 328.90625 206.675781 327.046875 213.632812 327.046875 C 222.445312 327.046875 226.617188 330.761719 226.617188 338.183594 L 226.617188 344.214844 L 221.980469 344.214844 C 199.71875 344.214844 189.515625 352.5625 189.515625 366.015625 C 189.515625 377.152344 196.007812 383.644531 208.53125 383.644531 C 216.878906 383.644531 222.910156 379.933594 228.472656 375.296875 L 229.402344 382.253906 L 239.605469 382.253906 Z M 226.617188 367.417969 C 221.980469 371.59375 216.878906 373.914062 212.242188 373.914062 C 206.210938 373.914062 202.503906 370.203125 202.503906 363.707031 C 202.503906 357.210938 206.210938 352.574219 221.054688 352.574219 L 226.621094 352.574219 L 226.621094 367.410156 Z M 56.414062 392.933594 C 52.703125 398.503906 47.136719 402.675781 40.179688 404.996094 L 34.148438 397.578125 C 38.785156 394.796875 43.421875 390.621094 45.277344 386.90625 C 47.132812 383.660156 47.597656 379.019531 47.597656 368.351562 L 47.597656 295.980469 L 61.511719 295.980469 L 61.511719 367.425781 C 61.511719 381.804688 60.121094 387.371094 56.417969 392.941406 Z M 56.414062 392.933594 " fill-opacity="1" fill-rule="nonzero"/></g></svg>