<svg xmlns="http://www.w3.org/2000/svg" xmlns:xlink="http://www.w3.org/1999/xlink" width="377" zoomAndPan="magnify" viewBox="0 0 282.96 283.499996" height="377" preserveAspectRatio="xMidYMid meet" version="1.0"><defs><clipPath id="c4adf9279e"><path d="M 136 212 L 153 212 L 153 283 L 136 283 Z M 136 212 " clip-rule="nonzero"/></clipPath></defs><path fill="#599636" d="M 141.160156 0.769531 L 148.699219 14.953125 C 150.394531 17.574219 152.230469 19.890625 154.394531 22.046875 C 160.707031 28.371094 166.699219 34.996094 172.085938 42.085938 C 184.859375 58.890625 193.476562 77.550781 199.628906 97.734375 C 203.320312 110.0625 205.324219 122.707031 205.472656 135.496094 C 206.09375 173.726562 193.007812 206.554688 166.628906 233.839844 C 162.320312 238.152344 157.714844 242.152344 152.769531 245.707031 C 150.15625 245.707031 148.921875 243.699219 147.84375 241.851562 C 145.839844 238.464844 144.613281 234.597656 143.996094 230.75 C 143.066406 226.125 142.457031 221.5 142.757812 216.726562 L 142.757812 214.566406 C 142.546875 214.109375 140.242188 1.855469 141.160156 0.769531 Z M 141.160156 0.769531 " fill-opacity="1" fill-rule="nonzero"/><path fill="#6cac48" d="M 141.160156 0.300781 C 140.851562 -0.320312 140.542969 0.148438 140.234375 0.449219 C 140.382812 3.546875 139.304688 6.304688 137.621094 8.941406 C 135.765625 11.558594 133.3125 13.566406 130.847656 15.722656 C 117.164062 27.59375 106.394531 41.929688 97.769531 57.960938 C 86.292969 79.539062 80.378906 102.667969 78.699219 127.015625 C 77.933594 135.796875 81.472656 166.785156 84.234375 175.726562 C 91.773438 199.460938 105.316406 219.351562 122.859375 236.617188 C 127.167969 240.773438 131.777344 244.628906 136.542969 248.332031 C 137.929688 248.332031 138.078125 247.09375 138.398438 246.175781 C 139.003906 244.203125 139.46875 242.199219 139.78125 240.160156 L 142.871094 217.042969 Z M 141.160156 0.300781 " fill-opacity="1" fill-rule="nonzero"/><g clip-path="url(#c4adf9279e)"><path fill="#c2bfbf" d="M 148.699219 255.097656 C 149.007812 251.5625 150.703125 248.625 152.550781 245.699219 C 150.695312 244.929688 149.316406 243.398438 148.242188 241.691406 C 147.3125 240.152344 146.546875 238.304688 145.945312 236.605469 C 143.792969 230.132812 143.332031 223.339844 142.714844 216.726562 L 142.714844 212.71875 C 141.945312 213.339844 141.789062 218.574219 141.789062 219.351562 C 141.335938 226.351562 140.414062 233.289062 139.015625 240.160156 C 138.554688 242.9375 138.246094 245.707031 136.542969 248.175781 C 136.542969 248.484375 136.542969 248.792969 136.691406 249.253906 C 139.464844 257.425781 140.222656 265.746094 140.691406 274.226562 L 140.691406 277.324219 C 140.691406 281.019531 140.542969 280.242188 143.605469 281.480469 C 144.839844 281.941406 146.21875 282.097656 147.453125 283.019531 C 148.382812 283.019531 148.53125 282.25 148.53125 281.628906 L 148.074219 276.546875 L 148.074219 262.359375 C 147.921875 259.882812 148.382812 257.425781 148.691406 255.109375 Z M 148.699219 255.097656 " fill-opacity="1" fill-rule="nonzero"/></g></svg>