<svg xmlns="http://www.w3.org/2000/svg" xmlns:xlink="http://www.w3.org/1999/xlink" width="377" zoomAndPan="magnify" viewBox="0 0 282.96 283.499996" height="377" preserveAspectRatio="xMidYMid meet" version="1.0"><defs><clipPath id="6772a35254"><path d="M 1 159 L 118 159 L 118 216.128906 L 1 216.128906 Z M 1 159 " clip-rule="nonzero"/></clipPath><clipPath id="667c236686"><path d="M 268 190 L 282.691406 190 L 282.691406 204 L 268 204 Z M 268 190 " clip-rule="nonzero"/></clipPath></defs><g clip-path="url(#6772a35254)"><path fill="#00618a" d="M 1.253906 203.253906 L 10.507812 203.253906 L 10.507812 166.648438 L 24.835938 198.570312 C 26.527344 202.421875 28.84375 203.800781 33.382812 203.800781 C 37.917969 203.800781 40.144531 202.433594 41.835938 198.570312 L 56.167969 166.648438 L 56.167969 203.269531 L 65.425781 203.269531 L 65.425781 166.707031 C 65.425781 163.140625 64 161.417969 61.0625 160.527344 C 54.03125 158.328125 49.3125 160.230469 47.179688 164.984375 L 33.117188 196.492188 L 19.5 164.972656 C 17.453125 160.214844 12.644531 158.3125 5.617188 160.511719 C 2.675781 161.40625 1.253906 163.128906 1.253906 166.695312 Z M 73.117188 173.449219 L 82.371094 173.449219 L 82.371094 193.625 C 82.285156 194.722656 82.722656 197.292969 87.792969 197.375 C 90.378906 197.414062 107.757812 197.375 107.921875 197.375 L 107.921875 173.347656 L 117.195312 173.347656 C 117.234375 173.347656 117.183594 206.105469 117.1875 206.246094 C 117.238281 214.324219 107.179688 216.082031 102.546875 216.214844 L 73.320312 216.214844 L 73.320312 209.976562 L 102.597656 209.976562 C 108.554688 209.34375 107.851562 206.378906 107.851562 205.378906 L 107.851562 202.945312 L 88.179688 202.945312 C 79.027344 202.863281 73.199219 198.859375 73.125 194.257812 C 73.121094 193.84375 73.324219 173.648438 73.121094 173.449219 Z M 73.117188 173.449219 " fill-opacity="1" fill-rule="nonzero"/></g><path fill="#e48e00" d="M 124.328125 203.253906 L 150.941406 203.253906 C 154.054688 203.253906 157.082031 202.601562 159.488281 201.46875 C 163.492188 199.628906 165.449219 197.132812 165.449219 193.863281 L 165.449219 187.085938 C 165.449219 184.410156 163.226562 181.914062 158.867188 180.25 C 156.550781 179.355469 153.703125 178.882812 150.945312 178.882812 L 139.730469 178.882812 C 135.992188 178.882812 134.210938 177.753906 133.765625 175.257812 C 133.679688 174.960938 133.679688 174.707031 133.679688 174.421875 L 133.679688 170.203125 C 133.679688 169.964844 133.679688 169.726562 133.765625 169.429688 C 134.210938 167.527344 135.191406 166.992188 138.484375 166.679688 C 138.75 166.679688 139.105469 166.621094 139.375 166.621094 L 165.808594 166.621094 L 165.808594 160.441406 L 139.820312 160.441406 C 136.082031 160.441406 134.125 160.675781 132.34375 161.210938 C 126.816406 162.9375 124.414062 165.6875 124.414062 170.441406 L 124.414062 175.851562 C 124.414062 180.011719 129.132812 183.578125 137.050781 184.410156 C 137.941406 184.46875 138.832031 184.527344 139.722656 184.527344 L 149.332031 184.527344 C 149.691406 184.527344 150.046875 184.527344 150.3125 184.589844 C 153.25 184.828125 154.496094 185.363281 155.386719 186.429688 C 155.933594 186.980469 156.097656 187.503906 156.097656 188.082031 L 156.097656 193.492188 C 156.097656 194.144531 155.65625 194.976562 154.765625 195.691406 C 153.964844 196.402344 152.628906 196.878906 150.847656 196.996094 C 150.492188 196.996094 150.226562 197.058594 149.871094 197.058594 L 124.328125 197.058594 Z M 223.191406 192.496094 C 223.191406 198.855469 227.90625 202.421875 237.429688 203.136719 C 238.316406 203.203125 239.207031 203.246094 240.097656 203.253906 L 264.21875 203.253906 L 264.21875 197.070312 L 239.921875 197.070312 C 234.492188 197.070312 232.445312 195.703125 232.445312 192.433594 L 232.445312 160.453125 L 223.1875 160.453125 L 223.1875 192.492188 Z M 171.355469 192.816406 L 171.355469 170.777344 C 171.355469 165.179688 175.277344 161.78125 183.035156 160.710938 C 183.867188 160.59375 184.699219 160.53125 185.535156 160.53125 L 203.105469 160.53125 C 203.972656 160.53125 204.832031 160.59375 205.691406 160.710938 C 213.449219 161.78125 217.375 165.175781 217.375 170.777344 L 217.375 192.816406 C 217.375 197.359375 215.707031 199.789062 211.867188 201.375 L 220.984375 209.621094 L 210.238281 209.621094 L 202.859375 202.949219 L 195.433594 203.421875 L 185.535156 203.421875 C 183.839844 203.421875 182.058594 203.183594 180.09375 202.648438 C 174.195312 201.039062 171.355469 197.941406 171.355469 192.816406 Z M 181.34375 192.265625 C 181.34375 192.566406 181.433594 192.863281 181.523438 193.222656 C 182.074219 195.78125 184.464844 197.210938 188.109375 197.210938 L 196.519531 197.210938 L 188.792969 190.226562 L 199.542969 190.226562 L 206.265625 196.320312 C 207.503906 195.65625 208.320312 194.640625 208.597656 193.339844 C 208.683594 193.042969 208.683594 192.746094 208.683594 192.445312 L 208.683594 171.316406 C 208.683594 171.078125 208.683594 170.765625 208.597656 170.480469 C 208.046875 168.097656 205.652344 166.730469 202.085938 166.730469 L 188.132812 166.730469 C 184.019531 166.730469 181.355469 168.515625 181.355469 171.316406 L 181.355469 192.285156 Z M 181.34375 192.265625 " fill-opacity="1" fill-rule="nonzero"/><path fill="#00618a" d="M 272.355469 150.195312 C 266.667969 150.042969 262.320312 150.570312 258.605469 152.140625 C 257.546875 152.585938 255.867188 152.597656 255.691406 153.925781 C 256.273438 154.535156 256.363281 155.445312 256.824219 156.191406 C 257.710938 157.632812 259.210938 159.558594 260.546875 160.570312 C 262.003906 161.671875 263.507812 162.855469 265.078125 163.8125 C 267.863281 165.515625 270.972656 166.484375 273.652344 168.1875 C 275.230469 169.191406 276.800781 170.457031 278.34375 171.59375 C 279.105469 172.152344 279.617188 173.023438 280.605469 173.375 L 280.605469 173.210938 C 280.085938 172.546875 279.953125 171.636719 279.476562 170.945312 L 277.371094 168.835938 C 275.3125 166.089844 272.703125 163.703125 269.929688 161.703125 C 267.714844 160.113281 262.761719 157.964844 261.839844 155.382812 L 261.679688 155.21875 C 263.246094 155.042969 265.085938 154.472656 266.535156 154.085938 C 268.964844 153.433594 271.140625 153.601562 273.652344 152.953125 L 277.050781 151.980469 L 277.050781 151.332031 C 275.78125 150.023438 274.875 148.296875 273.492188 147.117188 C 269.871094 144.023438 265.914062 140.9375 261.84375 138.359375 C 259.585938 136.933594 256.796875 136.003906 254.402344 134.792969 C 253.597656 134.386719 252.183594 134.175781 251.652344 133.496094 C 250.394531 131.890625 249.710938 129.855469 248.742188 128 C 246.710938 124.082031 244.714844 119.800781 242.917969 115.679688 C 241.6875 112.871094 240.886719 110.097656 239.359375 107.574219 C 232.011719 95.476562 224.101562 88.171875 211.855469 80.992188 C 209.25 79.46875 206.113281 78.863281 202.792969 78.078125 L 197.457031 77.75 C 196.367188 77.296875 195.238281 75.964844 194.21875 75.320312 C 190.160156 72.75 179.75 67.164062 176.746094 74.496094 C 174.847656 79.128906 179.582031 83.652344 181.277344 86.003906 C 182.464844 87.652344 183.988281 89.5 184.835938 91.351562 C 185.390625 92.570312 185.488281 93.792969 185.96875 95.082031 C 187.144531 98.242188 188.167969 101.710938 189.6875 104.644531 C 190.457031 106.128906 191.304688 107.695312 192.277344 109.019531 C 192.875 109.835938 193.894531 110.195312 194.054688 111.453125 C 193.058594 112.855469 193 115.027344 192.4375 116.804688 C 189.910156 124.792969 190.863281 134.71875 194.539062 140.632812 C 195.667969 142.445312 198.328125 146.339844 201.980469 144.84375 C 205.179688 143.539062 204.453125 139.5 205.378906 135.929688 C 205.585938 135.121094 205.460938 134.527344 205.867188 133.984375 L 205.867188 134.148438 L 208.777344 139.984375 C 210.933594 143.460938 214.757812 147.09375 218 149.550781 C 219.679688 150.820312 221.019531 153.019531 223.175781 153.761719 L 223.175781 153.601562 L 223.015625 153.601562 C 222.59375 152.941406 221.9375 152.671875 221.398438 152.144531 C 220.128906 150.898438 218.722656 149.355469 217.675781 147.929688 C 214.726562 143.917969 212.121094 139.53125 209.75 134.960938 C 208.613281 132.78125 207.628906 130.375 206.675781 128.15625 C 206.308594 127.296875 206.3125 126.003906 205.542969 125.5625 C 204.496094 127.1875 202.953125 128.503906 202.144531 130.421875 C 200.851562 133.496094 200.683594 137.238281 200.203125 141.121094 C 199.921875 141.222656 200.046875 141.152344 199.878906 141.285156 C 197.628906 140.738281 196.835938 138.417969 196 136.421875 C 193.878906 131.378906 193.488281 123.261719 195.351562 117.457031 C 195.832031 115.957031 198.011719 111.226562 197.128906 109.839844 C 196.707031 108.453125 195.320312 107.640625 194.542969 106.59375 C 193.582031 105.289062 192.617188 103.566406 191.953125 102.058594 C 190.21875 98.125 189.410156 93.714844 187.585938 89.738281 C 186.710938 87.839844 185.238281 85.917969 184.027344 84.242188 C 182.683594 82.371094 181.183594 80.992188 180.144531 78.742188 C 179.773438 77.9375 179.269531 76.652344 179.820312 75.824219 C 179.875 75.582031 179.988281 75.371094 180.164062 75.195312 C 180.339844 75.019531 180.546875 74.90625 180.792969 74.851562 C 181.730469 74.128906 184.34375 75.09375 185.320312 75.5 C 187.914062 76.582031 190.082031 77.609375 192.277344 79.066406 C 193.335938 79.753906 194.402344 81.125 195.675781 81.5 L 197.128906 81.5 C 199.40625 82.023438 201.957031 81.664062 204.085938 82.3125 C 207.847656 83.457031 211.214844 85.238281 214.277344 87.171875 C 223.605469 93.074219 231.226562 101.46875 236.441406 111.5 C 237.28125 113.113281 237.644531 114.652344 238.382812 116.363281 C 239.875 119.800781 241.753906 123.363281 243.238281 126.734375 C 244.71875 130.105469 246.160156 133.5 248.253906 136.300781 C 249.351562 137.769531 253.601562 138.5625 255.535156 139.378906 C 256.886719 139.953125 259.105469 140.550781 260.386719 141.324219 C 262.835938 142.804688 265.210938 144.566406 267.507812 146.1875 C 268.65625 147 272.183594 148.777344 272.359375 150.238281 Z M 272.355469 150.195312 " fill-opacity="1" fill-rule="nonzero"/><path fill="#00618a" d="M 200.046875 88.441406 C 198.859375 88.417969 198.023438 88.570312 197.132812 88.765625 L 197.132812 88.925781 L 197.296875 88.925781 C 197.859375 90.09375 198.859375 90.84375 199.558594 91.84375 L 201.179688 95.25 L 201.339844 95.085938 C 202.339844 94.378906 202.800781 93.246094 202.792969 91.519531 C 202.390625 91.097656 202.332031 90.566406 201.984375 90.058594 C 201.523438 89.386719 200.613281 89.003906 200.042969 88.4375 Z M 200.046875 88.441406 " fill-opacity="1" fill-rule="evenodd"/><g clip-path="url(#667c236686)"><path fill="#e48e00" d="M 268.570312 196.894531 C 268.570312 200.976562 271.789062 203.730469 275.390625 203.730469 C 278.992188 203.730469 282.210938 200.976562 282.210938 196.894531 C 282.210938 192.8125 278.992188 190.0625 275.390625 190.0625 C 271.789062 190.0625 268.570312 192.8125 268.570312 196.894531 Z M 280.683594 196.894531 C 280.683594 199.996094 278.320312 202.308594 275.386719 202.308594 C 272.425781 202.308594 270.09375 199.996094 270.09375 196.894531 C 270.09375 193.796875 272.421875 191.484375 275.386719 191.484375 C 278.316406 191.484375 280.683594 193.796875 280.683594 196.894531 Z M 277.226562 200.796875 L 278.753906 200.796875 L 276.515625 197.371094 C 277.71875 197.242188 278.625 196.660156 278.625 195.238281 C 278.625 193.652344 277.625 193 275.699219 193 L 272.660156 193 L 272.660156 200.796875 L 273.96875 200.796875 L 273.96875 197.425781 L 275.1875 197.425781 Z M 273.96875 196.328125 L 273.96875 194.089844 L 275.480469 194.089844 C 276.261719 194.089844 277.207031 194.234375 277.207031 195.148438 C 277.207031 196.242188 276.351562 196.332031 275.367188 196.332031 L 273.96875 196.332031 Z M 273.96875 196.328125 " fill-opacity="1" fill-rule="evenodd"/></g></svg>