<svg xmlns="http://www.w3.org/2000/svg" xmlns:xlink="http://www.w3.org/1999/xlink" width="377" zoomAndPan="magnify" viewBox="0 0 282.96 283.499996" height="377" preserveAspectRatio="xMidYMid meet" version="1.0"><defs><clipPath id="caeea5c72e"><path d="M 14.378906 0 L 268 0 L 268 280 L 14.378906 280 Z M 14.378906 0 " clip-rule="nonzero"/></clipPath></defs><g clip-path="url(#caeea5c72e)"><path fill="#8cc84b" d="M 129.90625 3.734375 C 136.898438 -0.226562 145.8125 -0.246094 152.632812 3.734375 L 257.027344 62.625 C 263.554688 66.296875 267.925781 73.582031 267.863281 81.113281 L 267.863281 199.1875 C 267.910156 207.03125 263.109375 214.476562 256.222656 218.078125 L 152.386719 276.695312 C 151.503906 277.183594 150.589844 277.613281 149.648438 277.980469 C 148.707031 278.347656 147.746094 278.652344 146.765625 278.890625 C 145.785156 279.128906 144.792969 279.300781 143.785156 279.40625 C 142.78125 279.511719 141.777344 279.554688 140.765625 279.523438 C 139.757812 279.496094 138.753906 279.402344 137.757812 279.238281 C 136.757812 279.078125 135.777344 278.851562 134.8125 278.558594 C 133.84375 278.265625 132.902344 277.910156 131.980469 277.492188 C 131.0625 277.074219 130.175781 276.59375 129.320312 276.058594 L 98.160156 258.039062 C 96.035156 256.773438 93.652344 255.765625 92.148438 253.710938 C 93.476562 251.925781 95.835938 251.699219 97.757812 250.914062 C 102.09375 249.53125 106.0625 247.414062 110.046875 245.175781 C 111.050781 244.476562 112.285156 244.738281 113.246094 245.367188 L 139.816406 260.742188 C 141.714844 261.835938 143.636719 260.394531 145.261719 259.476562 L 247.21875 201.898438 C 248.476562 201.285156 249.175781 199.957031 249.074219 198.574219 L 249.074219 81.636719 C 249.210938 80.0625 248.3125 78.628906 246.886719 77.992188 L 143.3125 19.625 C 143.015625 19.421875 142.691406 19.261719 142.347656 19.152344 C 142 19.046875 141.644531 18.992188 141.28125 18.988281 C 140.921875 18.988281 140.566406 19.042969 140.21875 19.148438 C 139.871094 19.257812 139.546875 19.414062 139.25 19.617188 L 35.824219 78.105469 C 34.425781 78.742188 33.464844 80.160156 33.640625 81.734375 L 33.640625 198.671875 C 33.515625 200.054688 34.25 201.355469 35.519531 201.949219 L 63.15625 217.5625 C 68.347656 220.363281 74.71875 221.9375 80.433594 219.882812 C 81.058594 219.644531 81.65625 219.367188 82.238281 219.039062 C 82.816406 218.714844 83.367188 218.347656 83.890625 217.9375 C 84.414062 217.527344 84.902344 217.082031 85.359375 216.597656 C 85.8125 216.113281 86.230469 215.597656 86.605469 215.050781 C 86.984375 214.5 87.316406 213.929688 87.605469 213.332031 C 87.898438 212.730469 88.140625 212.117188 88.335938 211.480469 C 88.53125 210.84375 88.679688 210.199219 88.777344 209.542969 C 88.875 208.882812 88.925781 208.222656 88.921875 207.558594 L 88.949219 91.320312 C 88.824219 89.597656 90.453125 88.171875 92.121094 88.347656 L 105.40625 88.347656 C 107.15625 88.300781 108.527344 90.15625 108.289062 91.886719 L 108.265625 208.859375 C 108.273438 219.25 104.007812 230.550781 94.402344 235.648438 C 82.566406 241.773438 67.9375 240.488281 56.242188 234.601562 L 26.523438 218.15625 C 19.53125 214.660156 14.839844 207.101562 14.882812 199.265625 L 14.882812 81.191406 C 14.894531 79.273438 15.164062 77.390625 15.679688 75.542969 C 16.199219 73.695312 16.949219 71.949219 17.933594 70.300781 C 18.921875 68.65625 20.105469 67.167969 21.488281 65.839844 C 22.871094 64.507812 24.402344 63.382812 26.085938 62.464844 Z M 160.007812 85.582031 C 175.101562 84.707031 191.261719 85.003906 204.847656 92.449219 C 215.359375 98.152344 221.191406 110.117188 221.382812 121.816406 C 221.085938 123.390625 219.441406 124.265625 217.9375 124.152344 C 213.570312 124.144531 209.179688 124.214844 204.792969 124.125 C 202.933594 124.195312 201.855469 122.484375 201.621094 120.839844 C 200.363281 115.242188 197.3125 109.703125 192.050781 107 C 183.972656 102.953125 174.605469 103.152344 165.792969 103.242188 C 159.359375 103.589844 152.449219 104.140625 147.003906 107.921875 C 142.808594 110.789062 141.546875 116.667969 143.042969 121.230469 C 144.441406 124.582031 148.3125 125.65625 151.46875 126.65625 C 169.664062 131.414062 188.9375 131.027344 206.796875 137.210938 C 214.179688 139.765625 221.410156 144.734375 223.945312 152.472656 C 227.246094 162.847656 225.804688 175.25 218.4375 183.574219 C 212.460938 190.433594 203.753906 194.070312 195.058594 196.1875 C 183.492188 198.765625 171.5 198.828125 159.761719 197.675781 C 148.722656 196.414062 137.238281 193.511719 128.71875 185.988281 C 121.425781 179.65625 117.878906 169.792969 118.230469 160.273438 C 118.316406 158.664062 119.914062 157.546875 121.460938 157.675781 L 134.574219 157.675781 C 136.339844 157.554688 137.632812 159.078125 137.71875 160.738281 C 138.53125 165.988281 140.535156 171.671875 145.183594 174.734375 C 154.152344 180.523438 165.402344 180.121094 175.660156 180.285156 C 184.167969 179.910156 193.710938 179.796875 200.660156 174.164062 C 204.332031 170.953125 205.40625 165.59375 204.417969 160.976562 C 203.34375 157.074219 199.171875 155.261719 195.675781 153.976562 C 177.714844 148.292969 158.226562 150.355469 140.4375 143.917969 C 133.21875 141.367188 126.234375 136.539062 123.464844 129.113281 C 119.59375 118.617188 121.367188 105.609375 129.519531 97.566406 C 137.386719 89.5625 148.925781 86.472656 159.851562 85.371094 Z M 160.007812 85.582031 " fill-opacity="1" fill-rule="nonzero"/></g></svg>