<svg xmlns="http://www.w3.org/2000/svg" xmlns:xlink="http://www.w3.org/1999/xlink" width="377" zoomAndPan="magnify" viewBox="0 0 283.5 283.500005" height="377" preserveAspectRatio="xMidYMid meet" version="1.0"><defs><clipPath id="af0a6c36b4"><path d="M 1 0 L 283 0 L 283 283 L 1 283 Z M 1 0 " clip-rule="nonzero"/></clipPath></defs><path fill="#000000" d="M 263.535156 174.144531 C 263.535156 174.160156 263.527344 174.167969 263.511719 174.167969 C 263.496094 174.167969 263.488281 174.160156 263.488281 174.144531 C 263.488281 174.128906 263.496094 174.121094 263.511719 174.121094 C 263.527344 174.121094 263.535156 174.128906 263.535156 174.144531 Z M 263.535156 174.144531 " fill-opacity="1" fill-rule="nonzero"/><path fill="#32648d" d="M 227.382812 171.828125 L 227.40625 171.851562 L 227.40625 171.863281 L 227.371094 171.875 C 225.601562 172.523438 224.140625 172.792969 222.90625 173.339844 C 221.652344 173.839844 220.636719 174.753906 220.039062 175.921875 L 220.027344 175.949219 C 219.273438 177.351562 218.613281 179.835938 218.808594 184.066406 C 219.308594 184.433594 219.917969 184.710938 220.539062 184.90625 L 220.589844 184.917969 C 222.652344 185.554688 226.101562 185.96875 229.957031 185.90625 C 237.640625 185.820312 247.105469 184.003906 252.132812 181.640625 C 256.460938 179.582031 260.171875 177.09375 263.476562 174.144531 C 246.691406 177.65625 237.214844 176.714844 231.394531 174.289062 C 229.882812 173.632812 228.554688 172.816406 227.382812 171.828125 Z M 227.382812 171.828125 " fill-opacity="1" fill-rule="nonzero"/><path fill="#32648d" d="M 210.171875 42.914062 L 210.246094 43.023438 L 210.332031 43.121094 Z M 210.171875 42.914062 " fill-opacity="1" fill-rule="nonzero"/><path fill="#32648d" d="M 145.976562 227.558594 C 145.964844 227.253906 145.976562 226.9375 145.964844 226.632812 C 145.964844 226.507812 145.953125 226.421875 145.953125 226.300781 Z M 145.976562 227.558594 " fill-opacity="1" fill-rule="nonzero"/><path fill="#32648d" d="M 133.109375 173.765625 C 132.402344 173.414062 131.570312 173.15625 130.679688 173.035156 L 130.644531 173.035156 L 130.644531 173.011719 L 130.386719 173.011719 C 129.753906 173.070312 128.828125 173.289062 127.023438 175.300781 C 122.824219 180.054688 121.363281 183.042969 117.898438 185.832031 C 114.433594 188.613281 109.945312 190.101562 100.96875 191.964844 C 98.125 192.550781 96.492188 193.195312 95.417969 193.71875 C 95.773438 194.011719 95.734375 194.085938 96.257812 194.367188 C 97.578125 195.097656 99.261719 195.742188 100.625 196.097656 C 104.480469 197.070312 110.824219 198.207031 117.433594 197.070312 C 124.046875 195.925781 130.925781 192.71875 136.792969 184.394531 C 137.804688 182.957031 137.914062 180.835938 137.085938 178.554688 C 136.253906 176.277344 134.402344 174.316406 133.109375 173.765625 Z M 133.109375 173.765625 " fill-opacity="1" fill-rule="nonzero"/><path fill="#32648d" d="M 182.363281 10.625 L 181.667969 10.757812 C 181.898438 10.710938 182.15625 10.6875 182.386719 10.636719 C 182.375 10.636719 182.375 10.625 182.363281 10.625 Z M 182.363281 10.625 " fill-opacity="1" fill-rule="nonzero"/><path fill="#32648d" d="M 216.296875 76.421875 C 208.109375 76.53125 203.523438 78.664062 201.109375 81.457031 C 197.695312 85.417969 197.378906 92.367188 199.5 100.921875 C 201.609375 109.492188 205.964844 119.074219 210.0625 127.03125 C 212.113281 131.019531 214.101562 134.601562 215.699219 137.515625 C 217.308594 140.441406 218.492188 142.511719 219.210938 144.28125 C 219.871094 145.914062 220.613281 147.351562 221.359375 148.691406 C 224.527344 141.929688 225.089844 135.285156 224.773438 128.363281 C 224.359375 119.792969 222.382812 111.027344 222.675781 102.15625 C 223.003906 91.78125 225.027344 85.027344 225.199219 77.007812 C 222.527344 76.640625 219.429688 76.421875 216.296875 76.421875 Z M 217.808594 82.589844 L 217.796875 82.6875 C 217.796875 82.726562 217.796875 82.761719 217.796875 82.808594 C 217.796875 83.371094 217.636719 83.90625 217.355469 84.347656 L 217.371094 84.332031 C 216.992188 85.027344 216.550781 85.636719 216.039062 86.164062 C 214.84375 87.492188 213.246094 88.417969 211.441406 88.734375 L 211.390625 88.746094 C 211.136719 88.78125 210.84375 88.796875 210.539062 88.796875 C 209 88.796875 207.585938 88.308594 206.429688 87.480469 L 206.453125 87.492188 C 205.855469 87.078125 205.332031 86.601562 204.902344 86.066406 L 204.890625 86.050781 C 204.511719 85.636719 204.246094 85.101562 204.136719 84.527344 L 204.136719 84.503906 C 204.136719 84.445312 204.121094 84.382812 204.121094 84.320312 C 204.121094 83.796875 204.316406 83.308594 204.648438 82.945312 C 205.039062 82.492188 205.5 82.128906 206.039062 81.859375 L 206.0625 81.847656 C 207.222656 81.1875 208.78125 80.703125 210.550781 80.433594 C 211.210938 80.335938 211.867188 80.285156 212.476562 80.273438 L 212.476562 80.3125 L 213.074219 80.3125 C 213.867188 80.335938 214.601562 80.421875 215.246094 80.578125 C 215.894531 80.726562 216.453125 80.945312 216.90625 81.25 C 217.355469 81.554688 217.699219 82.019531 217.808594 82.589844 Z M 217.808594 82.589844 " fill-opacity="1" fill-rule="nonzero"/><path fill="#32648d" d="M 82.0625 130.140625 C 82.0625 127.945312 82.234375 125.800781 82.550781 123.691406 L 82.523438 123.925781 C 83.769531 114.917969 83.941406 106.492188 83.792969 99.839844 C 83.648438 93.355469 83.183594 89.039062 83.183594 86.34375 C 83.183594 86.308594 83.183594 86.273438 83.183594 86.234375 C 83.183594 86.199219 83.183594 86.148438 83.183594 86.113281 L 83.183594 86.050781 L 83.171875 85.980469 L 83.171875 85.96875 C 83.171875 85.941406 83.171875 85.929688 83.171875 85.90625 C 83.171875 71.472656 85.707031 57.640625 90.308594 44.804688 C 93.6875 35.734375 98.710938 26.53125 106.238281 19.074219 C 98.832031 16.609375 85.707031 12.855469 71.488281 12.148438 C 70.121094 12.074219 68.523438 12.027344 66.925781 12.027344 L 66.914062 12.027344 L 66.914062 12.039062 C 65.386719 12.039062 63.851562 12.089844 62.339844 12.171875 C 50.164062 12.878906 38.652344 16.453125 30.429688 25.277344 C 22.183594 34.101562 16.757812 48.570312 17.9375 72.523438 C 18.171875 77.058594 20.121094 89.757812 23.464844 104.847656 C 26.820312 119.9375 31.539062 137.699219 37.222656 153.386719 C 42.917969 169.074219 49.824219 182.726562 56.386719 189.1875 C 59.691406 192.414062 62.558594 193.71875 65.15625 193.609375 C 67.765625 193.488281 70.914062 191.964844 74.753906 187.296875 C 82.304688 178.105469 89.441406 169.976562 96.808594 162.078125 L 96.566406 162.332031 C 87.660156 154.46875 82.0625 142.976562 82.0625 130.140625 Z M 82.0625 130.140625 " fill-opacity="1" fill-rule="nonzero"/><path fill="#32648d" d="M 146.941406 11.429688 L 146.941406 11.40625 C 132.695312 11.441406 122.484375 15.792969 114.726562 22.316406 C 106.738281 29.054688 101.382812 38.28125 97.859375 47.730469 C 93.675781 58.945312 92.246094 69.792969 91.671875 77.15625 L 91.832031 77.058594 C 96.136719 74.617188 101.785156 72.179688 107.835938 70.765625 C 113.886719 69.351562 120.398438 68.925781 126.300781 71.242188 C 132.207031 73.558594 137.085938 79.007812 138.855469 87.269531 C 147.332031 126.972656 136.21875 141.734375 132.121094 152.875 C 130.816406 156.078125 129.460938 160.199219 128.328125 164.40625 L 128.132812 165.222656 C 128.644531 165.101562 129.167969 164.953125 129.679688 164.90625 C 132.570312 164.660156 134.839844 165.636719 136.183594 166.222656 C 140.304688 167.953125 143.136719 171.585938 144.660156 175.730469 C 145.0625 176.8125 145.34375 177.984375 145.511719 179.191406 C 145.671875 179.605469 145.757812 180.09375 145.757812 180.59375 C 145.757812 180.640625 145.757812 180.691406 145.757812 180.738281 C 145.5625 186.832031 145.441406 193.988281 145.441406 201.179688 C 145.441406 209.699219 145.609375 218.183594 145.929688 226.632812 C 146.207031 233.042969 146.609375 238.722656 147.109375 243.195312 C 147.636719 247.753906 148.367188 251.203125 148.832031 252.375 C 150.367188 256.273438 152.625 261.382812 156.699219 264.855469 C 160.773438 268.316406 166.613281 270.632812 177.289062 268.316406 C 186.546875 266.308594 192.253906 263.515625 196.070312 259.503906 C 199.890625 255.496094 202.160156 249.914062 203.609375 241.367188 C 205.792969 228.570312 210.171875 191.453125 210.710938 184.46875 C 210.464844 179.203125 211.234375 175.15625 212.90625 172.070312 C 214.613281 168.902344 217.273438 166.964844 219.550781 165.917969 C 220.699219 165.390625 221.773438 165.039062 222.652344 164.78125 C 221.578125 163.234375 220.613281 161.941406 219.613281 160.6875 L 219.722656 160.820312 C 216.5625 156.96875 213.867188 152.542969 211.832031 147.777344 L 211.699219 147.425781 C 210.464844 144.878906 209.429688 142.953125 208.34375 141.0625 L 208.597656 141.539062 C 207 138.613281 204.976562 134.957031 202.855469 130.847656 C 198.609375 122.621094 194 112.648438 191.597656 102.933594 C 189.203125 93.230469 188.863281 83.1875 194.988281 76.105469 C 200.402344 69.816406 209.929688 67.207031 224.210938 68.671875 C 223.796875 67.390625 223.542969 66.332031 222.820312 64.625 C 219.34375 56.457031 215.160156 49.410156 210.195312 43.023438 C 198.085938 27.398438 178.507812 11.929688 148.28125 11.429688 Z M 146.941406 11.429688 " fill-opacity="1" fill-rule="nonzero"/><path fill="#32648d" d="M 91.503906 87.027344 L 91.527344 87.015625 L 91.5625 86.980469 Z M 91.503906 87.027344 " fill-opacity="1" fill-rule="nonzero"/><path fill="#32648d" d="M 109.433594 78.777344 L 109.554688 78.761719 L 109.652344 78.726562 Z M 109.433594 78.777344 " fill-opacity="1" fill-rule="nonzero"/><path fill="#32648d" d="M 124.546875 150.007812 C 129.4375 136.675781 139.0625 126.949219 130.960938 88.988281 C 129.632812 82.773438 127.007812 80.261719 123.398438 78.847656 C 121.644531 78.203125 119.605469 77.824219 117.472656 77.824219 C 117.335938 77.824219 117.191406 77.824219 117.054688 77.824219 L 117.082031 77.824219 C 114.484375 77.847656 111.96875 78.179688 109.554688 78.761719 C 104.433594 80.054688 99.917969 81.882812 95.722656 84.222656 C 94.148438 85.089844 92.796875 85.992188 91.527344 87.003906 L 91.296875 87.222656 C 91.367188 89.003906 91.710938 93.316406 91.855469 99.667969 C 92.003906 106.617188 91.832031 115.476562 90.503906 125.070312 C 87.625 145.914062 102.578125 163.171875 120.140625 163.199219 C 121.179688 158.917969 122.863281 154.582031 124.546875 150.007812 Z M 114.164062 89.441406 C 113.59375 88.855469 113.128906 88.199219 112.75 87.480469 L 112.726562 87.429688 C 112.410156 86.917969 112.226562 86.296875 112.226562 85.625 C 112.226562 85.503906 112.238281 85.382812 112.25 85.261719 L 112.25 85.273438 C 112.433594 83.957031 113.507812 83.273438 114.542969 82.894531 C 115.507812 82.578125 116.582031 82.394531 117.726562 82.394531 C 117.898438 82.394531 118.070312 82.394531 118.265625 82.40625 L 118.25 82.359375 C 118.886719 82.359375 119.570312 82.421875 120.253906 82.515625 C 122.09375 82.773438 123.742188 83.273438 124.984375 84.003906 C 125.605469 84.347656 126.144531 84.773438 126.570312 85.285156 L 126.582031 85.296875 C 126.996094 85.773438 127.242188 86.394531 127.242188 87.089844 C 127.242188 87.1875 127.242188 87.285156 127.230469 87.382812 L 127.230469 87.367188 C 127.105469 88.101562 126.777344 88.734375 126.328125 89.246094 C 125.828125 89.855469 125.265625 90.378906 124.632812 90.820312 L 124.605469 90.832031 C 123.375 91.734375 121.824219 92.269531 120.15625 92.269531 C 119.824219 92.269531 119.496094 92.246094 119.179688 92.207031 L 119.214844 92.207031 C 117.191406 91.867188 115.457031 90.867188 114.164062 89.441406 Z M 114.164062 89.441406 " fill-opacity="1" fill-rule="nonzero"/><path fill="#32648d" d="M 95.480469 84.347656 C 95.566406 84.296875 95.648438 84.273438 95.722656 84.222656 C 95.734375 84.222656 95.746094 84.210938 95.757812 84.199219 Z M 95.480469 84.347656 " fill-opacity="1" fill-rule="nonzero"/><path fill="#32648d" d="M 216.699219 38.050781 C 221.980469 44.816406 226.554688 52.519531 230.078125 60.785156 L 230.335938 61.453125 C 231.664062 64.671875 232.554688 67.390625 233.054688 69.5 C 233.3125 70.558594 233.480469 71.449219 233.542969 72.375 C 233.566406 72.839844 233.59375 73.316406 233.398438 74.132812 C 233.398438 74.167969 233.335938 74.253906 233.324219 74.289062 C 233.691406 84.96875 231.066406 92.207031 230.761719 102.398438 C 230.519531 109.785156 232.382812 118.464844 232.847656 127.933594 C 233.285156 136.832031 232.226562 146.609375 226.503906 156.203125 C 226.992188 156.785156 227.421875 157.371094 227.882812 157.957031 C 242.996094 133.882812 253.886719 107.25 259.695312 84.539062 C 262.804688 72.316406 264.453125 61.234375 264.597656 52.457031 C 264.71875 43.683594 263.097656 37.320312 261.046875 34.664062 C 244.875 13.746094 223.003906 8.417969 204.660156 8.273438 L 204.660156 8.285156 L 202.902344 8.285156 C 195.828125 8.394531 188.996094 9.210938 182.398438 10.636719 C 197.378906 17.367188 208.722656 27.726562 216.699219 38.050781 Z M 216.699219 38.050781 " fill-opacity="1" fill-rule="nonzero"/><g clip-path="url(#af0a6c36b4)"><path fill="#000000" d="M 148.953125 -4.539062 L 148.832031 -4.539062 C 134.632812 -4.78125 122.449219 -1.296875 112.605469 4.507812 C 102.917969 1.105469 82.832031 -4.757812 61.644531 -3.585938 C 46.894531 -2.769531 30.796875 1.765625 18.867188 14.5 C 6.972656 27.238281 0.691406 46.949219 2.007812 73.765625 C 2.375 81.164062 4.460938 93.230469 7.914062 108.859375 C 11.378906 124.484375 16.230469 142.78125 22.292969 159.46875 C 28.355469 176.167969 34.992188 191.160156 45.371094 201.351562 C 50.554688 206.457031 57.691406 210.75 66.09375 210.394531 C 72 210.152344 77.328125 207.53125 81.941406 203.667969 C 84.183594 206.652344 86.574219 207.957031 88.757812 209.164062 C 91.503906 210.6875 94.175781 211.722656 96.941406 212.40625 C 101.917969 213.660156 110.433594 215.34375 120.410156 213.625 C 123.8125 213.050781 127.386719 211.929688 130.949219 210.335938 C 131.082031 214.355469 131.242188 218.292969 131.386719 222.28125 C 131.890625 234.90625 132.195312 246.574219 135.9375 256.800781 C 136.535156 258.46875 138.195312 267.074219 144.695312 274.667969 C 151.199219 282.273438 163.957031 287.015625 178.472656 283.871094 C 188.71875 281.652344 201.730469 277.65625 210.390625 265.199219 C 218.941406 252.886719 222.796875 235.222656 223.566406 206.578125 C 223.761719 205.03125 223.992188 203.714844 224.222656 202.484375 L 226.261719 202.667969 L 226.503906 202.667969 C 237.433594 203.167969 249.289062 201.59375 259.195312 196.9375 C 267.964844 192.832031 274.601562 188.671875 279.441406 181.300781 C 280.648438 179.472656 281.96875 177.265625 282.332031 173.460938 C 282.699219 169.660156 280.539062 163.710938 276.953125 160.96875 C 269.78125 155.457031 265.28125 157.554688 260.449219 158.566406 C 256.144531 159.578125 251.167969 160.210938 246.070312 160.347656 L 245.972656 160.347656 C 259.902344 136.613281 269.890625 111.40625 275.589844 89.101562 C 278.964844 75.933594 280.855469 63.792969 281.003906 53.179688 C 281.164062 42.5625 280.308594 33.164062 274.015625 25.03125 C 254.363281 -0.371094 226.738281 -7.390625 205.355469 -7.632812 C 204.695312 -7.644531 204.023438 -7.660156 203.367188 -7.644531 L 203.367188 -7.683594 C 191.730469 -7.585938 180.53125 -5.828125 169.933594 -2.699219 L 169.433594 -2.527344 C 163.308594 -3.671875 156.199219 -4.402344 148.953125 -4.539062 Z M 177.847656 3.226562 C 185.3125 1.386719 193.902344 0.277344 202.730469 0.167969 L 202.804688 0.167969 L 202.816406 0.117188 C 223.042969 -0.078125 248.863281 5.664062 267.414062 29.640625 C 271.585938 35.027344 272.832031 42.902344 272.683594 52.605469 C 272.527344 62.296875 270.757812 73.898438 267.511719 86.613281 C 261.21875 111.234375 249.339844 139.941406 232.605469 165.695312 C 233.152344 166.097656 233.785156 166.453125 234.445312 166.722656 L 234.507812 166.746094 C 237.996094 168.207031 245.960938 169.464844 261.855469 166.160156 C 265.855469 165.308594 268.78125 164.734375 271.820312 167.074219 C 273.183594 168.246094 274.039062 169.976562 274.039062 171.914062 C 274.039062 172.035156 274.039062 172.15625 274.027344 172.277344 L 274.027344 172.265625 C 273.84375 173.816406 273.292969 175.203125 272.453125 176.363281 C 269.378906 181.03125 263.316406 185.457031 255.558594 189.101562 C 248.679688 192.34375 238.8125 194.035156 230.066406 194.132812 C 225.675781 194.183594 221.636719 193.84375 218.199219 192.757812 L 217.980469 192.671875 C 216.648438 205.59375 213.601562 231.105469 211.613281 242.746094 C 210.027344 252.132812 207.246094 259.589844 201.925781 265.171875 C 196.621094 270.757812 189.121094 274.121094 179.019531 276.3125 C 166.519531 279.03125 157.394531 276.105469 151.515625 271.097656 C 145.648438 266.101562 142.964844 259.46875 141.34375 255.410156 C 140.230469 252.605469 139.660156 248.972656 139.097656 244.121094 C 138.535156 239.269531 138.132812 233.335938 137.851562 226.644531 C 137.585938 219.839844 137.4375 211.84375 137.4375 203.8125 C 137.4375 201.167969 137.464844 198.535156 137.488281 195.890625 C 132.449219 200.570312 126.082031 203.863281 119.007812 205.117188 L 118.789062 205.152344 C 110.480469 206.578125 103.078125 205.179688 98.652344 204.054688 C 96.296875 203.460938 94.246094 202.617188 92.320312 201.570312 C 90.296875 200.472656 88.367188 199.21875 87.074219 196.765625 C 86.5625 195.828125 86.257812 194.695312 86.257812 193.5 C 86.257812 193.023438 86.304688 192.550781 86.402344 192.109375 C 86.84375 190.476562 87.757812 189.089844 89.015625 188.113281 L 89.027344 188.101562 C 91.417969 186.136719 94.5625 185.042969 99.332031 184.042969 C 107.992188 182.238281 111.019531 181.007812 112.859375 179.53125 C 114.421875 178.265625 116.203125 175.703125 119.324219 171.949219 C 119.3125 171.839844 119.300781 171.65625 119.289062 171.488281 L 119.289062 171.449219 C 113.386719 171.28125 107.882812 169.683594 103.078125 166.988281 L 103.261719 167.085938 C 101.457031 169.011719 92.222656 178.886719 80.976562 192.585938 C 76.242188 198.316406 71.011719 201.605469 65.496094 201.839844 C 59.984375 202.070312 54.996094 199.265625 50.75 195.109375 C 42.273438 186.785156 35.515625 172.460938 29.625 156.273438 C 23.746094 140.085938 18.964844 122.058594 15.5625 106.699219 C 12.144531 91.34375 10.144531 78.957031 9.851562 72.984375 C 8.582031 47.609375 14.449219 30.507812 24.515625 19.71875 C 34.589844 8.929688 48.398438 4.847656 61.851562 4.066406 C 86.015625 2.664062 108.945312 11.1875 113.59375 13.015625 C 122.546875 6.871094 134.070312 3.042969 148.453125 3.289062 C 155.699219 3.398438 162.664062 4.359375 169.324219 6.078125 L 168.714844 5.945312 L 168.957031 5.835938 C 171.285156 4.957031 174.261719 4.066406 177.3125 3.335938 Z M 177.847656 3.226562 " fill-opacity="1" fill-rule="nonzero"/></g></svg>